:FULLY-SPECIFIED
:FORCE-ALL-JOINTS-BE-3DOF
:DEGREES
136
root 7.74003 16.6251 -26.3123 -8.75146 11.5303 3.32569
lfemur -7.76217 13.4002 -19.7604
ltibia 34.4094 -0 0
lfoot -17.4958 -9.67867 0.0172895
ltoes 23.8998 -0 0
rfemur -91.3925 -27.9629 47.3584
rtibia 81.3796 -0 0
rfoot 9.27535 23.3312 0.0344921
rtoes -29.7307 0 0
lowerback 15.5444 -3.19416 -7.2929
upperback 4.90393 -5.32583 -0.962069
thorax -2.86789 -2.65396 3.98844
lowerneck -12.1891 -1.45387 -0.0338435
upperneck 0.854771 -2.07494 3.1542
head 2.44005 -0.921375 0.907829
lclavicle 2.47238e-15 1.43125e-14 0
lhumerus -39.344 -22.4826 91.6981
lradius 50.2396 -0 0
lwrist 12.8926 0 0
lhand 12.6122 7.82584 0.155531
lfingers 7.12502 -0 0
lthumb 37.5665 33.4629 0.0499007
rclavicle 2.47238e-15 1.43125e-14 0
rhumerus -45.6684 -17.8732 -59.7188
rradius 78.3581 -0 0
rwrist -17.1935 0 0
rhand -14.0327 -38.9459 5.48694
rfingers 7.12502 -0 0
rthumb 13.0364 14.341 -18.3808
137
root 7.70278 16.6031 -26.3037 -8.52154 12.2308 3.30748
lfemur -8.31111 13.8131 -19.6469
ltibia 34.8935 -0 0
lfoot -17.7529 -9.80101 0.017564
ltoes 23.1329 -0 0
rfemur -91.943 -28.0832 47.1102
rtibia 85.1688 -0 0
rfoot 11.4703 23.36 0.0350439
rtoes -28.2663 0 0
lowerback 15.5106 -3.41708 -7.39704
upperback 4.84578 -5.63832 -1.07626
thorax -2.876 -2.8056 3.97348
lowerneck -12.1337 -1.52983 -0.152824
upperneck 0.761826 -2.16509 3.35653
head 2.4056 -0.961483 0.989432
lclavicle 2.47238e-15 1.43125e-14 0
lhumerus -38.9891 -23.3526 91.7214
lradius 49.9311 -0 0
lwrist 12.6466 0 0
lhand 13.4488 8.16445 0.158003
lfingers 7.12502 -0 0
lthumb 38.3551 33.5781 0.0506936
rclavicle 2.47238e-15 1.43125e-14 0
rhumerus -46.3805 -18.413 -60.4453
rradius 79.5272 -0 0
rwrist -17.1205 0 0
rhand -17.5935 -41.8588 5.57708
rfingers 7.12502 -0 0
rthumb 8.58065 23.6918 -18.7265
138
root 7.66553 16.5812 -26.2952 -8.29122 12.9314 3.29211
lfemur -8.8602 14.227 -19.5373
ltibia 35.3777 -0 0
lfoot -18.0099 -9.92334 0.0172895
ltoes 22.366 -0 0
rfemur -92.4935 -28.2056 46.8631
rtibia 88.9581 -0 0
rfoot 13.6652 23.3888 0.0344921
rtoes -26.802 0 0
lowerback 15.4772 -3.64006 -7.50108
upperback 4.78822 -5.95093 -1.1902
thorax -2.88408 -2.95725 3.95853
lowerneck -12.0782 -1.60568 -0.271882
upperneck 0.668557 -2.25491 3.55903
head 2.37109 -1.00154 1.07106
lclavicle 2.47238e-15 1.43125e-14 0
lhumerus -38.6323 -24.2228 91.7389
lradius 49.6227 -0 0
lwrist 12.4006 0 0
lhand 14.2853 8.50306 0.155531
lfingers 7.12502 -0 0
lthumb 39.1438 33.6933 0.0499007
rclavicle 2.47238e-15 1.43125e-14 0
rhumerus -47.0877 -18.9613 -61.1669
rradius 80.6963 -0 0
rwrist -17.0476 0 0
rhand -21.1543 -44.7717 5.48694
rfingers 7.12502 -0 0
rthumb 4.12491 33.0426 -18.3808
139
root 7.62829 16.5593 -26.2866 -8.06044 13.6321 3.27959
lfemur -9.40949 14.642 -19.4316
ltibia 35.8619 -0 0
lfoot -18.267 -10.0457 0.0164661
ltoes 21.5992 -0 0
rfemur -93.044 -28.33 46.617
rtibia 92.7474 -0 0
rfoot 15.8602 23.4176 0.0328375
rtoes -25.3376 0 0
lowerback 15.4441 -3.86309 -7.60502
upperback 4.73126 -6.26365 -1.30389
thorax -2.89213 -3.10889 3.94361
lowerneck -12.0225 -1.68141 -0.391018
upperneck 0.574965 -2.3444 3.76168
head 2.33653 -1.04155 1.15272
lclavicle 2.47238e-15 1.43125e-14 0
lhumerus -38.2732 -25.093 91.7506
lradius 49.3143 -0 0
lwrist 12.1545 0 0
lhand 15.1218 8.84161 0.148115
lfingers 7.12502 -0 0
lthumb 39.9325 33.8085 0.0475222
rclavicle 2.47238e-15 1.43125e-14 0
rhumerus -47.7898 -19.5179 -61.8837
rradius 81.8653 -0 0
rwrist -16.9747 0 0
rhand -24.7049 -47.6725 5.21712
rfingers 7.12502 -0 0
rthumb -0.196177 42.3015 -17.3564
140
root 7.59105 16.5374 -26.278 -7.8291 14.3327 3.26994
lfemur -9.95904 15.0579 -19.3298
ltibia 36.346 -0 0
lfoot -18.5241 -10.168 0.0150938
ltoes 20.8323 -0 0
rfemur -93.5946 -28.4566 46.372
rtibia 96.5367 -0 0
rfoot 18.0551 23.4462 0.0300826
rtoes -23.8733 0 0
lowerback 15.4115 -4.08619 -7.70885
upperback 4.67489 -6.57648 -1.41733
thorax -2.90013 -3.26054 3.92871
lowerneck -11.9667 -1.75703 -0.510233
upperneck 0.481051 -2.43356 3.96449
head 2.3019 -1.08151 1.23439
lclavicle 2.47238e-15 1.43125e-14 0
lhumerus -37.9117 -25.9633 91.7563
lradius 49.0058 -0 0
lwrist 11.9084 0 0
lhand 15.9583 9.18 0.135758
lfingers 7.12502 -0 0
lthumb 40.7211 33.9236 0.0435585
rclavicle 2.47238e-15 1.43125e-14 0
rhumerus -48.487 -20.0828 -62.5958
rradius 83.0344 -0 0
rwrist -16.9018 0 0
rhand -28.2353 -50.5493 4.76943
rfingers 7.12502 -0 0
rthumb -4.26072 51.3905 -15.6892
